REM DIRINDEX 1\2,1\3,1\4,1\5
REM DIRNAME cjc046,folder01,folder02,folder03,folder04
TITLE ""
FILE "138.mp3" MP3
  TRACK 01 AUDIO
    TITLE "0:"
    INDEX 01 00:00:00
  TRACK 02 AUDIO
    TITLE "2:cjc046_3648"
    INDEX 01 00:00:13
  TRACK 03 AUDIO
    TITLE "0:"
    INDEX 01 00:01:17
  TRACK 04 AUDIO
    TITLE "3:cjc046_3649"
    INDEX 01 00:01:32
  TRACK 05 AUDIO
    TITLE "0:"
    INDEX 01 00:03:19
  TRACK 06 AUDIO
    TITLE "4:cjc046_3650"
    INDEX 01 00:03:31
  TRACK 07 AUDIO
    TITLE "0:"
    INDEX 01 00:04:33
  TRACK 08 AUDIO
    TITLE "2:cjc046_3651"
    INDEX 01 00:05:38
  TRACK 09 AUDIO
    TITLE "0:"
    INDEX 01 00:06:43
  TRACK 10 AUDIO
    TITLE "3:cjc046_3652"
    INDEX 01 00:06:57
  TRACK 11 AUDIO
    TITLE "0:"
    INDEX 01 00:08:13
  TRACK 12 AUDIO
    TITLE "4:cjc046_3653"
    INDEX 01 00:08:30
  TRACK 13 AUDIO
    TITLE "0:"
    INDEX 01 00:09:34
  TRACK 14 AUDIO
    TITLE "2:cjc046_3654"
    INDEX 01 00:10:47
  TRACK 15 AUDIO
    TITLE "0:"
    INDEX 01 00:11:46
  TRACK 16 AUDIO
    TITLE "3:cjc046_3655"
    INDEX 01 00:11:66
  TRACK 17 AUDIO
    TITLE "0:"
    INDEX 01 00:13:02
  TRACK 18 AUDIO
    TITLE "4:cjc046_3656"
    INDEX 01 00:13:22
  TRACK 19 AUDIO
    TITLE "0:"
    INDEX 01 00:14:23
  TRACK 20 AUDIO
    TITLE "2:cjc046_3657"
    INDEX 01 00:15:28
  TRACK 21 AUDIO
    TITLE "0:"
    INDEX 01 00:16:44
  TRACK 22 AUDIO
    TITLE "3:cjc046_3658"
    INDEX 01 00:16:63
  TRACK 23 AUDIO
    TITLE "0:"
    INDEX 01 00:18:19
  TRACK 24 AUDIO
    TITLE "4:cjc046_3659"
    INDEX 01 00:18:35
  TRACK 25 AUDIO
    TITLE "0:"
    INDEX 01 00:19:50
  TRACK 26 AUDIO
    TITLE "2:cjc046_3660"
    INDEX 01 00:20:59
  TRACK 27 AUDIO
    TITLE "0:"
    INDEX 01 00:21:64
  TRACK 28 AUDIO
    TITLE "3:cjc046_3661"
    INDEX 01 00:22:07
  TRACK 29 AUDIO
    TITLE "0:"
    INDEX 01 00:23:38
  TRACK 30 AUDIO
    TITLE "4:cjc046_3662"
    INDEX 01 00:23:57
  TRACK 31 AUDIO
    TITLE "0:"
    INDEX 01 00:24:65
  TRACK 32 AUDIO
    TITLE "2:cjc046_3663"
    INDEX 01 00:25:72
  TRACK 33 AUDIO
    TITLE "0:"
    INDEX 01 00:27:08
  TRACK 34 AUDIO
    TITLE "3:cjc046_3664"
    INDEX 01 00:27:32
  TRACK 35 AUDIO
    TITLE "0:"
    INDEX 01 00:28:55
  TRACK 36 AUDIO
    TITLE "4:cjc046_3665"
    INDEX 01 00:28:74
  TRACK 37 AUDIO
    TITLE "0:"
    INDEX 01 00:30:14
  TRACK 38 AUDIO
    TITLE "2:cjc046_3666"
    INDEX 01 00:31:22
  TRACK 39 AUDIO
    TITLE "0:"
    INDEX 01 00:32:25
  TRACK 40 AUDIO
    TITLE "3:cjc046_3667"
    INDEX 01 00:32:43
  TRACK 41 AUDIO
    TITLE "0:"
    INDEX 01 00:33:32
  TRACK 42 AUDIO
    TITLE "4:cjc046_3668"
    INDEX 01 00:33:52
  TRACK 43 AUDIO
    TITLE "0:"
    INDEX 01 00:34:55
  TRACK 44 AUDIO
    TITLE "2:cjc046_3669"
    INDEX 01 00:35:63
  TRACK 45 AUDIO
    TITLE "0:"
    INDEX 01 00:36:64
  TRACK 46 AUDIO
    TITLE "3:cjc046_3670"
    INDEX 01 00:37:10
  TRACK 47 AUDIO
    TITLE "0:"
    INDEX 01 00:38:16
  TRACK 48 AUDIO
    TITLE "4:cjc046_3671"
    INDEX 01 00:38:35
  TRACK 49 AUDIO
    TITLE "0:"
    INDEX 01 00:39:37
  TRACK 50 AUDIO
    TITLE "2:cjc046_3672"
    INDEX 01 00:40:38
  TRACK 51 AUDIO
    TITLE "0:"
    INDEX 01 00:41:53
  TRACK 52 AUDIO
    TITLE "3:cjc046_3673"
    INDEX 01 00:41:73
  TRACK 53 AUDIO
    TITLE "0:"
    INDEX 01 00:43:46
  TRACK 54 AUDIO
    TITLE "4:cjc046_3674"
    INDEX 01 00:43:58
  TRACK 55 AUDIO
    TITLE "0:"
    INDEX 01 00:44:73
  TRACK 56 AUDIO
    TITLE "2:cjc046_3675"
    INDEX 01 00:46:06
  TRACK 57 AUDIO
    TITLE "0:"
    INDEX 01 00:47:19
  TRACK 58 AUDIO
    TITLE "3:cjc046_3676"
    INDEX 01 00:47:40
  TRACK 59 AUDIO
    TITLE "0:"
    INDEX 01 00:48:34
  TRACK 60 AUDIO
    TITLE "4:cjc046_3677"
    INDEX 01 00:48:55
  TRACK 61 AUDIO
    TITLE "0:"
    INDEX 01 00:49:70
  TRACK 62 AUDIO
    TITLE "2:cjc046_3678"
    INDEX 01 00:51:05
  TRACK 63 AUDIO
    TITLE "0:"
    INDEX 01 00:52:04
  TRACK 64 AUDIO
    TITLE "3:cjc046_3679"
    INDEX 01 00:52:26
  TRACK 65 AUDIO
    TITLE "0:"
    INDEX 01 00:53:35
  TRACK 66 AUDIO
    TITLE "4:cjc046_3680"
    INDEX 01 00:53:47
  TRACK 67 AUDIO
    TITLE "0:"
    INDEX 01 00:54:50
  TRACK 68 AUDIO
    TITLE "2:cjc046_3681"
    INDEX 01 00:55:57
  TRACK 69 AUDIO
    TITLE "0:"
    INDEX 01 00:57:01
  TRACK 70 AUDIO
    TITLE "3:cjc046_3682"
    INDEX 01 00:57:21
  TRACK 71 AUDIO
    TITLE "0:"
    INDEX 01 00:58:28
  TRACK 72 AUDIO
    TITLE "4:cjc046_3683"
    INDEX 01 00:58:38
  TRACK 73 AUDIO
    TITLE "0:"
    INDEX 01 00:59:55
  TRACK 74 AUDIO
    TITLE "2:cjc046_3684"
    INDEX 01 01:00:64
  TRACK 75 AUDIO
    TITLE "0:"
    INDEX 01 01:02:10
  TRACK 76 AUDIO
    TITLE "3:cjc046_3685"
    INDEX 01 01:02:30
  TRACK 77 AUDIO
    TITLE "0:"
    INDEX 01 01:03:47
  TRACK 78 AUDIO
    TITLE "4:cjc046_3686"
    INDEX 01 01:03:65
  TRACK 79 AUDIO
    TITLE "0:"
    INDEX 01 01:05:07
  TRACK 80 AUDIO
    TITLE "2:cjc046_3687"
    INDEX 01 01:06:18
  TRACK 81 AUDIO
    TITLE "0:"
    INDEX 01 01:07:37
  TRACK 82 AUDIO
    TITLE "3:cjc046_3688"
    INDEX 01 01:07:53
  TRACK 83 AUDIO
    TITLE "0:"
    INDEX 01 01:08:58
  TRACK 84 AUDIO
    TITLE "4:cjc046_3689"
    INDEX 01 01:09:01
  TRACK 85 AUDIO
    TITLE "0:"
    INDEX 01 01:10:20
